<svg width="288" height="351" viewBox="0 0 288 351" fill="none" xmlns="http://www.w3.org/2000/svg">
<rect x="0.675049" y="346.125" width="286.65" height="4.875" rx="2.4375" fill="#0A3871"/>
<rect x="79.3325" width="173.306" height="4.3875" rx="2.19375" fill="#0A3871"/>
<rect x="79.3325" width="4.3875" height="351" rx="2.19375" fill="#0A3871"/>
<rect x="248.251" width="4.3875" height="48.2625" rx="2.19375" fill="#0A3871"/>
<rect x="248.251" y="105.3" width="4.3875" height="131.625" fill="#0A3871"/>
<rect x="249.054" y="233.634" width="4.38901" height="70.2" rx="2.19451" transform="rotate(30 249.054 233.634)" fill="#0A3871"/>
<rect width="4.39126" height="70.2" rx="2.19563" transform="matrix(-0.866025 0.5 0.5 0.866025 251.759 233.634)" fill="#0A3871"/>
<rect width="4.38666" height="70.2" rx="2.19333" transform="matrix(-0.866025 0.5 0.5 0.866025 251.758 104.203)" fill="#0A3871"/>
<rect x="249.055" y="104.203" width="4.38691" height="70.2" rx="2.19346" transform="rotate(30 249.055 104.203)" fill="#0A3871"/>
<path fill-rule="evenodd" clip-rule="evenodd" d="M250.445 100.913C264.984 100.913 276.77 89.1264 276.77 74.5875C276.77 60.0486 264.984 48.2625 250.445 48.2625C235.906 48.2625 224.12 60.0486 224.12 74.5875C224.12 89.1264 235.906 100.913 250.445 100.913ZM250.445 105.3C267.407 105.3 281.157 91.5495 281.157 74.5875C281.157 57.6255 267.407 43.875 250.445 43.875C233.483 43.875 219.732 57.6255 219.732 74.5875C219.732 91.5495 233.483 105.3 250.445 105.3Z" fill="#0A3871"/>
</svg>
